<?xml version="1.0" standalone="no"?>
<!DOCTYPE svg PUBLIC "-//W3C//DTD SVG 20010904//EN"
 "http://www.w3.org/TR/2001/REC-SVG-20010904/DTD/svg10.dtd">
<svg version="1.0" xmlns="http://www.w3.org/2000/svg"
 width="509.000000pt" height="490.000000pt" viewBox="0 0 509.000000 490.000000"
 preserveAspectRatio="xMidYMid meet">

<g transform="translate(0.000000,490.000000) scale(0.100000,-0.100000)"
fill="#000000" stroke="none">
<path d="M2470 4123 c-8 -2 -28 -11 -45 -18 -16 -7 -127 -56 -245 -108 -364
-160 -356 -156 -329 -181 8 -7 79 -41 159 -76 80 -34 163 -71 185 -80 200 -90
283 -123 300 -122 12 1 57 18 100 37 78 36 106 48 173 76 17 8 32 16 32 19 0
3 -42 23 -93 44 -186 80 -237 106 -237 121 0 8 7 15 15 15 9 0 97 -36 197 -80
l181 -81 134 65 c105 51 134 70 131 83 -2 12 -50 38 -148 81 -253 111 -489
212 -492 211 -2 0 -10 -3 -18 -6z"/>
<path d="M2098 3568 l-3 -83 -85 -22 c-236 -62 -410 -149 -622 -310 -266 -204
-460 -493 -542 -810 -21 -80 -46 -264 -46 -335 l0 -58 161 2 c132 2 163 6 170
18 4 8 24 49 43 91 132 285 475 528 876 622 132 31 168 36 306 48 374 32 804
-78 1097 -280 185 -128 340 -313 380 -453 l13 -43 162 -3 162 -2 0 72 c0 68
-16 185 -40 303 -34 163 -139 395 -240 530 -215 287 -590 531 -919 600 l-33 7
7 -53 c9 -69 19 -87 53 -95 46 -12 201 -72 268 -106 l64 -32 0 -213 c0 -117
-4 -213 -9 -213 -4 0 -37 9 -72 21 -35 12 -115 33 -177 48 l-113 26 -3 130
c-2 72 -4 133 -5 138 0 4 -28 7 -61 7 l-60 0 0 -123 0 -123 -287 1 c-159 0
-313 -2 -343 -5 l-55 -4 -3 142 c-3 160 5 200 48 261 35 47 71 72 150 102 110
42 291 22 380 -42 23 -16 25 -24 25 -91 l0 -73 98 -3 c88 -2 97 -1 97 15 0 21
-39 222 -47 243 -3 8 -7 29 -9 45 -13 147 -17 185 -19 185 -2 0 -119 -51 -160
-70 -11 -5 -63 -28 -115 -51 -111 -48 -90 -50 -280 34 -137 60 -199 87 -204
87 -3 0 -6 -37 -8 -82z m-88 -488 l0 -239 -37 -7 c-53 -9 -219 -52 -271 -70
-23 -7 -47 -14 -52 -14 -6 0 -10 82 -10 210 l0 210 53 30 c61 35 270 117 305
119 9 1 12 -53 12 -239z m-500 -195 l0 -194 -77 -39 c-153 -77 -260 -146 -372
-238 -36 -30 -67 -51 -69 -49 -8 7 38 135 75 210 84 167 233 351 372 456 35
27 66 49 67 49 2 0 4 -88 4 -195z m2041 133 c150 -124 260 -261 341 -425 56
-113 94 -210 85 -219 -3 -3 -42 24 -87 60 -99 80 -234 164 -346 217 l-84 40 0
194 c0 107 4 195 8 195 5 0 42 -28 83 -62z"/>
<path d="M1935 2498 c-59 -10 -61 -11 -110 -79 -47 -64 -52 -69 -85 -67 -43 2
-56 -5 -100 -58 -174 -207 -228 -271 -241 -284 -8 -8 -30 -35 -49 -59 l-34
-44 49 7 c160 21 313 28 560 23 278 -6 347 -14 472 -56 79 -27 96 -26 185 3
135 43 220 51 553 50 188 0 335 -5 374 -12 36 -6 66 -10 68 -9 1 2 -19 28 -45
57 -44 49 -53 54 -108 62 -32 5 -155 12 -272 15 -172 4 -230 2 -305 -12 -115
-20 -206 -49 -276 -87 -29 -16 -55 -27 -58 -25 -2 2 11 19 29 36 115 113 462
179 771 147 59 -7 107 -8 107 -4 0 4 -8 13 -18 20 -26 19 -155 170 -233 274
-55 74 -75 93 -101 98 -194 39 -422 -9 -543 -115 l-35 -31 -53 40 c-135 103
-308 141 -502 110z m291 -79 c93 -37 157 -75 193 -114 44 -48 44 -45 44 -240
0 -46 -3 -47 -34 -20 -87 73 -247 121 -443 135 -72 5 -161 6 -198 3 -37 -3
-68 -3 -68 1 0 4 33 47 73 94 41 48 83 101 96 119 14 22 32 33 54 36 54 8 252
-1 283 -14z m821 13 c11 -4 42 -36 68 -72 27 -36 68 -89 92 -117 25 -29 41
-53 36 -54 -4 0 -39 0 -78 1 -254 4 -504 -54 -617 -142 l-38 -30 0 120 c0 115
1 122 26 152 54 63 165 122 269 140 50 9 213 10 242 2z m-1064 -327 c218 -21
357 -65 447 -142 22 -19 39 -37 37 -40 -3 -2 -31 9 -63 26 -148 75 -289 101
-540 101 -99 0 -218 -5 -263 -11 -45 -6 -84 -9 -87 -6 -2 2 10 20 28 40 32 36
35 37 118 40 47 2 105 4 130 5 25 1 111 -5 193 -13z"/>
<path d="M771 1703 c-70 -37 -108 -85 -123 -155 -24 -114 27 -220 129 -268 39
-18 59 -21 118 -18 38 3 77 8 85 11 10 5 28 -6 52 -28 20 -19 40 -35 44 -35 4
0 20 12 35 26 l28 26 -30 32 c-33 35 -36 48 -14 66 19 16 37 81 37 135 0 64
-22 121 -59 160 -50 52 -89 68 -173 73 -68 3 -80 1 -129 -25z m187 -83 c52
-32 74 -76 69 -138 -5 -75 -19 -84 -62 -42 l-35 34 -30 -29 -30 -29 25 -26
c14 -14 25 -30 25 -34 0 -5 -23 -6 -50 -4 -179 17 -159 288 20 288 19 0 50 -9
68 -20z"/>
<path d="M3096 1715 c-46 -16 -101 -67 -127 -117 -22 -43 -26 -151 -7 -195 54
-124 199 -177 339 -124 85 33 89 40 89 148 l0 93 -105 0 -105 0 0 -40 0 -40
55 0 55 0 0 -34 c0 -29 -4 -36 -31 -45 -81 -28 -161 -1 -190 63 -25 54 -23 92
4 141 42 74 132 97 202 49 l38 -25 28 33 c34 40 34 40 10 62 -48 44 -176 59
-255 31z"/>
<path d="M4020 1708 c-56 -29 -83 -76 -76 -133 7 -55 47 -89 138 -116 107 -32
133 -62 83 -95 -32 -21 -112 -13 -161 15 -19 11 -34 17 -34 13 0 -4 -11 -20
-25 -36 -13 -16 -23 -32 -21 -35 3 -4 26 -18 53 -31 66 -34 183 -40 233 -12
50 27 80 76 80 128 0 66 -35 99 -139 133 -90 29 -114 49 -95 79 17 26 84 27
135 3 23 -12 43 -20 44 -18 2 1 10 17 20 36 21 41 12 52 -58 75 -66 22 -125
20 -177 -6z"/>
<path d="M1230 1495 l0 -225 140 0 c148 0 188 9 223 48 41 46 28 145 -24 172
-20 11 -19 12 6 41 29 36 34 101 9 137 -31 44 -63 52 -214 52 l-140 0 0 -225z
m248 129 c24 -17 29 -53 10 -72 -7 -7 -42 -12 -85 -12 l-73 0 0 43 c0 24 3 47
7 50 13 14 118 7 141 -9z m14 -176 c23 -18 30 -51 16 -71 -10 -12 -32 -17 -93
-18 l-80 -2 -3 37 c-5 62 0 66 76 66 39 0 75 -5 84 -12z"/>
<path d="M1720 1495 l0 -225 50 0 49 0 3 73 3 72 35 0 c31 0 38 -6 84 -72 l49
-73 64 0 64 0 -56 75 -55 75 46 44 46 45 -4 65 c-3 52 -9 71 -28 92 -42 45
-78 54 -220 54 l-130 0 0 -225z m266 110 c20 -27 17 -62 -6 -85 -16 -16 -33
-20 -90 -20 l-70 0 0 63 c0 35 2 66 4 68 3 2 37 2 76 -1 55 -4 75 -10 86 -25z"/>
<path d="M2210 1495 l0 -225 55 0 55 0 0 225 0 225 -55 0 -55 0 0 -225z"/>
<path d="M2440 1494 l0 -226 138 4 c116 3 143 7 178 26 56 29 91 73 110 138
33 115 -30 234 -145 273 -19 6 -90 11 -157 11 l-124 0 0 -226z m253 122 c47
-20 67 -47 73 -103 12 -97 -44 -153 -153 -153 l-63 0 0 135 0 135 55 0 c31 0
70 -6 88 -14z"/>
<path d="M3500 1495 l0 -225 170 0 170 0 0 45 0 45 -120 0 -120 0 0 45 0 44
103 3 102 3 3 38 3 37 -105 0 -106 0 0 50 0 50 120 0 120 0 0 45 0 45 -170 0
-170 0 0 -225z"/>
<path d="M1150 1035 l0 -135 90 0 c89 0 90 0 90 25 0 24 -3 25 -60 25 l-60 0
0 110 0 110 -30 0 -30 0 0 -135z"/>
<path d="M1440 1035 l0 -135 100 0 100 0 0 25 c0 24 -2 25 -70 25 l-70 0 0 30
c0 30 1 30 55 30 52 0 55 1 55 25 0 24 -3 25 -55 25 -52 0 -55 1 -55 25 0 24
2 25 65 25 l65 0 0 30 0 30 -95 0 -95 0 0 -135z"/>
<path d="M1817 1103 c-14 -37 -37 -98 -51 -135 l-26 -68 30 0 c23 0 33 6 40
25 9 23 15 25 65 25 49 0 57 -3 67 -25 8 -18 19 -25 40 -25 16 0 28 5 28 13
-1 6 -22 66 -48 132 l-47 120 -36 3 c-36 3 -36 3 -62 -65z m81 -52 c7 -21 12
-41 12 -45 0 -7 -55 -8 -62 0 -7 7 22 84 32 84 4 0 12 -17 18 -39z"/>
<path d="M2130 1036 l0 -136 25 0 c23 0 25 4 25 45 0 41 2 45 24 45 18 0 32
-12 53 -45 24 -38 33 -45 61 -45 17 0 32 3 32 6 0 3 -14 25 -30 49 -29 42 -29
45 -12 54 30 16 47 66 33 99 -17 41 -48 55 -133 60 l-78 5 0 -137z m148 45 c5
-29 -12 -41 -60 -41 -37 0 -38 1 -38 36 l0 35 48 -3 c41 -3 47 -6 50 -27z"/>
<path d="M2470 1036 l0 -136 30 0 29 0 3 83 3 82 60 -82 c54 -75 63 -83 92
-83 l33 0 0 135 0 135 -30 0 -29 0 -3 -82 -3 -83 -60 80 c-51 67 -66 80 -93
83 l-32 3 0 -135z"/>
<path d="M2860 1035 l0 -135 25 0 25 0 0 135 0 135 -25 0 -25 0 0 -135z"/>
<path d="M3050 1035 l0 -135 30 0 29 0 3 83 3 82 59 -82 c54 -76 62 -83 93
-83 l34 0 -3 133 -3 132 -30 0 -30 0 2 -77 c1 -43 -1 -78 -5 -77 -4 0 -33 36
-64 80 -50 68 -62 79 -88 79 l-30 0 0 -135z"/>
<path d="M3483 1150 c-42 -25 -63 -68 -63 -126 0 -41 5 -51 39 -85 36 -36 43
-39 96 -39 83 0 115 25 115 91 l0 49 -55 0 c-48 0 -55 -2 -55 -20 0 -15 7 -20
25 -20 29 0 36 -34 9 -44 -74 -28 -139 47 -103 117 7 12 17 25 23 29 18 12 81
9 94 -4 10 -10 17 -8 34 9 l21 22 -34 20 c-43 26 -104 27 -146 1z"/>
<path d="M1646 693 c-15 -37 -30 -73 -33 -80 -8 -21 21 -15 35 7 8 14 23 20
47 20 24 0 37 -6 45 -20 6 -11 17 -20 25 -20 11 0 6 19 -18 78 -44 104 -62
107 -101 15z m69 -10 c5 -20 3 -23 -19 -23 -28 0 -36 26 -14 48 14 14 23 7 33
-25z"/>
<path d="M1880 733 c-23 -30 -23 -81 1 -109 16 -20 76 -28 105 -15 27 12 23
37 -5 26 -36 -15 -53 -13 -71 5 -45 45 0 117 56 91 31 -14 50 -5 33 15 -7 8
-30 14 -54 14 -36 0 -48 -5 -65 -27z"/>
<path d="M2161 737 c-8 -21 -49 -111 -58 -129 -2 -5 5 -8 15 -8 11 0 22 9 25
20 4 15 14 20 41 20 25 0 40 -6 48 -20 12 -18 38 -28 38 -14 0 3 -11 29 -24
57 -13 29 -26 62 -30 75 -10 29 -44 29 -55 -1z m43 -39 c9 -35 8 -38 -19 -38
-29 0 -29 0 -13 35 14 31 24 32 32 3z"/>
<path d="M2378 679 l4 -81 55 4 c43 4 61 10 75 28 24 29 23 71 -3 104 -18 23
-28 26 -77 26 l-57 0 3 -81z m100 45 c44 -30 21 -94 -33 -94 l-35 0 0 55 c0
51 2 55 23 55 12 0 33 -7 45 -16z"/>
<path d="M2640 680 l0 -80 60 0 c43 0 60 4 60 13 0 9 -14 13 -42 13 -37 0 -43
3 -46 22 -3 20 1 22 37 22 23 0 41 5 41 10 0 6 -18 10 -40 10 -36 0 -40 3 -40
25 0 23 4 25 45 25 25 0 45 5 45 10 0 6 -27 10 -60 10 l-60 0 0 -80z"/>
<path d="M2880 679 c0 -60 3 -80 13 -76 7 2 12 22 12 50 0 26 3 47 6 47 3 0
14 -16 25 -35 10 -19 21 -35 25 -35 4 0 12 13 19 30 7 16 18 35 26 41 12 10
14 3 12 -41 -2 -35 1 -54 10 -57 9 -4 12 16 12 76 0 71 -2 81 -18 81 -10 0
-26 -15 -36 -35 -11 -19 -23 -35 -28 -35 -4 0 -16 16 -25 35 -10 21 -24 35
-35 35 -16 0 -18 -9 -18 -81z"/>
<path d="M3160 752 c0 -4 11 -24 25 -44 15 -22 25 -51 25 -72 0 -25 4 -36 15
-36 10 0 15 10 15 33 0 19 13 50 31 77 20 30 26 46 18 49 -12 4 -43 -27 -52
-52 -4 -14 -29 7 -40 36 -6 17 -37 25 -37 9z"/>
</g>
</svg>
